<?xml version="1.0" standalone="no"?>
<!DOCTYPE svg PUBLIC "-//W3C//DTD SVG 20010904//EN"
 "http://www.w3.org/TR/2001/REC-SVG-20010904/DTD/svg10.dtd">
<svg version="1.0" xmlns="http://www.w3.org/2000/svg"
 width="800.000000pt" height="800.000000pt" viewBox="0 0 800.000000 800.000000"
 preserveAspectRatio="xMidYMid meet">

<g transform="translate(0.000000,800.000000) scale(0.100000,-0.100000)"
fill="#000000" stroke="none">
<path d="M3090 5665 c-364 -74 -647 -344 -746 -712 -18 -64 -19 -122 -19 -953
0 -837 1 -889 19 -955 95 -350 351 -606 703 -701 64 -18 122 -19 953 -19 837
0 889 1 955 19 350 95 606 351 701 701 18 66 19 118 19 955 0 837 -1 889 -19
955 -94 348 -344 600 -696 701 -61 17 -119 19 -935 20 -691 2 -883 0 -935 -11z
m1723 -275 c152 -22 288 -92 393 -202 104 -109 163 -228 184 -375 6 -40 10
-379 10 -813 0 -434 -4 -773 -10 -813 -39 -269 -227 -483 -496 -563 -54 -16
-128 -18 -839 -21 -824 -4 -883 -2 -1006 41 -181 63 -347 231 -408 414 -40
117 -42 186 -38 997 4 869 0 819 75 975 28 57 57 96 122 161 114 115 232 177
379 198 81 12 1551 13 1634 1z"/>
<path d="M4835 5108 c-125 -44 -179 -192 -110 -303 39 -62 98 -95 171 -95 66
0 100 13 142 53 48 46 64 82 65 147 1 142 -137 244 -268 198z"/>
<path d="M3828 4845 c-272 -54 -519 -260 -624 -520 -105 -259 -77 -566 72
-791 259 -391 767 -509 1169 -272 86 51 237 200 288 283 214 355 154 798 -145
1080 -124 117 -256 186 -420 219 -92 19 -247 19 -340 1z m315 -290 c198 -51
368 -220 412 -408 19 -81 19 -218 0 -291 -51 -195 -216 -360 -411 -411 -74
-19 -213 -19 -287 0 -204 53 -358 208 -413 415 -19 71 -19 209 1 284 51 194
215 359 406 410 71 19 220 20 292 1z"/>
</g>
</svg>
